<svg xmlns="http://www.w3.org/2000/svg" width="887" height="1182" viewBox="0 0 887 1182">
<g>
<path d="M 478.32 1101.42 C464.71,1103.31 436.92,1104.14 424.00,1103.05 C365.47,1098.12 308.24,1074.36 258.50,1034.35 C244.67,1023.23 219.65,998.88 207.32,984.56 C141.79,908.45 97.06,804.05 81.11,690.00 C55.27,505.33 103.23,318.09 207.25,197.50 C219.68,183.08 244.69,158.76 258.50,147.65 C302.95,111.89 353.05,89.27 405.20,81.41 C419.63,79.24 454.04,78.45 469.75,79.94 C525.97,85.25 579.56,107.99 628.50,147.29 C726.23,225.77 793.25,362.72 809.43,517.00 C814.35,563.96 814.35,618.04 809.43,665.00 C793.25,819.27 726.17,956.35 628.50,1034.70 C582.10,1071.92 532.67,1093.88 478.32,1101.42 ZM 415.37 1087.50 C429.74,1089.33 465.28,1088.79 480.00,1086.52 C530.78,1078.69 578.64,1056.67 622.76,1020.82 C634.46,1011.32 658.99,986.99 670.47,973.50 C734.38,898.40 777.00,797.09 792.45,683.50 C816.65,505.58 769.06,321.98 668.82,206.50 C656.11,191.86 633.09,169.53 619.50,158.67 C577.94,125.44 532.75,104.48 486.50,96.97 C432.24,88.16 379.76,95.84 329.32,119.97 C210.22,176.94 120.74,319.60 96.01,491.91 C90.58,529.71 89.57,545.39 89.58,591.50 C89.59,636.47 90.50,650.92 95.60,687.50 C115.86,832.72 182.75,959.33 276.33,1029.59 C319.68,1062.15 365.25,1081.12 415.37,1087.50 ZM 626.18 804.38 C622.96,805.67 618.37,806.36 611.50,806.58 L 611.47 806.58 C606.01,806.75 603.34,806.83 600.74,806.46 C598.23,806.11 595.79,805.33 591.00,803.81 C576.66,799.28 565.64,790.20 555.42,774.51 C544.22,757.32 538.17,741.27 523.17,688.93 L 514.44 658.50 L 504.47 655.24 C494.17,651.87 426.08,634.53 425.58,635.15 C425.03,635.83 377.70,791.45 377.60,792.91 C377.55,793.73 378.95,795.32 380.71,796.45 C382.48,797.58 383.94,798.84 383.96,799.25 C383.98,799.66 378.06,800.00 370.80,800.00 L 357.60 800.00 L 361.79 795.98 C364.09,793.76 366.69,790.56 367.57,788.86 C372.39,779.54 415.55,632.12 413.65,631.46 C413.02,631.24 405.00,628.60 395.83,625.58 C366.10,615.81 333.06,601.36 314.52,590.01 C310.91,587.81 307.36,586.00 306.63,586.00 C305.75,586.00 301.80,597.43 294.97,619.75 C289.30,638.31 280.28,667.67 274.93,685.00 L 265.21 716.50 L 268.02 719.16 C269.57,720.63 270.58,722.09 270.25,722.41 C269.50,723.17 246.00,723.19 246.00,722.44 C246.00,722.12 247.36,720.73 249.02,719.33 C250.68,717.93 253.11,714.92 254.42,712.64 C255.73,710.37 265.43,679.76 275.98,644.64 C286.52,609.51 295.36,580.23 295.61,579.58 C295.86,578.92 293.47,576.61 290.28,574.45 C281.07,568.18 263.18,549.65 256.13,539.06 C244.92,522.25 239.37,509.17 236.62,493.07 C234.87,482.88 234.41,459.48 235.94,458.54 C236.46,458.22 240.28,459.64 244.44,461.70 L 252.00 465.44 L 252.00 474.11 C252.00,495.79 260.68,520.31 275.80,541.34 C282.58,550.78 297.84,566.59 298.98,565.36 C299.42,564.89 305.07,546.95 311.53,525.50 C317.98,504.05 327.01,474.12 331.59,459.00 C336.17,443.88 344.55,416.07 350.21,397.22 C360.31,363.59 360.55,362.95 363.00,363.22 C365.42,363.49 366.52,366.93 397.48,470.75 C415.07,529.74 429.70,578.00 429.98,578.00 C430.27,578.00 440.19,546.84 452.01,508.75 C471.67,445.45 473.71,439.47 475.76,439.18 C476.99,439.00 478.00,439.08 478.00,439.35 C478.00,439.83 497.12,502.51 525.62,595.50 C533.04,619.70 540.45,643.87 542.09,649.22 L 545.06 658.93 L 560.28 666.38 C584.12,678.06 605.02,692.67 622.34,709.77 C641.26,728.45 651.06,748.01 650.95,766.86 C650.84,784.46 641.88,798.04 626.18,804.38 ZM 395.00 615.55 C409.94,620.65 413.00,621.51 413.00,620.56 C413.00,620.00 356.14,429.00 355.37,427.00 C355.25,426.67 355.16,426.34 355.01,426.30 C354.21,426.14 351.68,434.40 332.85,495.90 L 330.85 502.45 C309.95,570.74 308.92,574.47 310.66,575.77 C316.97,580.48 332.60,589.36 345.50,595.57 C362.79,603.90 373.32,608.15 395.00,615.55 ZM 604.06 794.09 C616.51,799.14 632.73,793.80 640.06,782.24 C650.30,766.10 643.09,742.64 620.77,719.37 C605.94,703.92 585.75,689.39 563.22,677.94 C552.24,672.36 549.00,671.15 549.00,672.61 C549.00,676.25 563.48,724.51 569.22,740.00 C581.73,773.76 591.56,789.02 604.06,794.09 ZM 501.00 644.74 C506.23,646.30 510.62,647.30 510.78,646.96 C510.98,646.50 475.27,529.35 467.83,506.10 C467.04,503.63 466.53,503.09 465.95,504.12 C464.96,505.89 429.00,623.33 429.00,624.80 C429.00,624.86 429.00,624.92 428.99,624.98 C428.98,625.08 428.98,625.16 428.99,625.24 C429.13,626.16 431.60,626.73 462.00,634.43 C478.23,638.54 495.77,643.18 501.00,644.74 ZM 452.45 199.03 C444.98,203.65 435.54,202.00 429.71,195.07 C426.37,191.09 425.62,188.29 426.23,181.99 C427.80,165.63 451.00,161.50 458.62,176.23 C462.43,183.60 459.42,194.72 452.45,199.03 ZM 451.04 999.98 C439.56,1005.84 426.06,997.59 426.02,984.70 C425.99,976.46 431.16,969.86 439.01,968.11 C450.83,965.47 460.48,973.22 460.30,985.20 C460.21,991.34 456.56,997.17 451.04,999.98 Z" fill="rgb(164,120,101)"/>
<path d="M 0.00 591.00 L 0.00 0.00 L 443.50 0.00 L 887.00 0.00 L 887.00 591.00 L 887.00 1182.00 L 443.50 1182.00 L 0.00 1182.00 L 0.00 591.00 ZM 478.32 1101.42 C532.67,1093.88 582.10,1071.92 628.50,1034.70 C726.17,956.35 793.25,819.27 809.43,665.00 C814.35,618.04 814.35,563.96 809.43,517.00 C793.25,362.72 726.23,225.77 628.50,147.29 C579.56,107.99 525.97,85.25 469.75,79.94 C454.04,78.45 419.63,79.24 405.20,81.41 C353.05,89.27 302.95,111.89 258.50,147.65 C244.69,158.76 219.68,183.08 207.25,197.50 C103.23,318.09 55.27,505.33 81.11,690.00 C97.06,804.05 141.79,908.45 207.32,984.56 C219.65,998.88 244.67,1023.23 258.50,1034.35 C308.24,1074.36 365.47,1098.12 424.00,1103.05 C436.92,1104.14 464.71,1103.31 478.32,1101.42 ZM 415.37 1087.50 C365.25,1081.12 319.68,1062.15 276.33,1029.59 C182.75,959.33 115.86,832.72 95.60,687.50 C90.50,650.92 89.59,636.47 89.58,591.50 C89.57,545.39 90.58,529.71 96.01,491.91 C120.74,319.60 210.22,176.94 329.32,119.97 C379.76,95.84 432.24,88.16 486.50,96.97 C532.75,104.48 577.94,125.44 619.50,158.67 C633.09,169.53 656.11,191.86 668.82,206.50 C769.06,321.98 816.65,505.58 792.45,683.50 C777.00,797.09 734.38,898.40 670.47,973.50 C658.99,986.99 634.46,1011.32 622.76,1020.82 C578.64,1056.67 530.78,1078.69 480.00,1086.52 C465.28,1088.79 429.74,1089.33 415.37,1087.50 ZM 451.04 999.98 C456.56,997.17 460.21,991.34 460.30,985.20 C460.48,973.22 450.83,965.47 439.01,968.11 C431.16,969.86 425.99,976.46 426.02,984.70 C426.06,997.59 439.56,1005.84 451.04,999.98 ZM 626.18 804.38 C641.88,798.04 650.84,784.46 650.95,766.86 C651.06,748.01 641.26,728.45 622.34,709.77 C605.02,692.67 584.12,678.06 560.28,666.38 L 545.06 658.93 L 542.09 649.22 C540.45,643.87 533.04,619.70 525.62,595.50 C497.12,502.51 478.00,439.83 478.00,439.35 C478.00,439.08 476.99,439.00 475.76,439.18 C473.71,439.47 471.67,445.45 452.01,508.75 C440.19,546.84 430.27,578.00 429.98,578.00 C429.70,578.00 415.07,529.74 397.48,470.75 C366.52,366.93 365.42,363.49 363.00,363.22 C360.55,362.95 360.31,363.59 350.21,397.22 C344.55,416.07 336.17,443.88 331.59,459.00 C327.01,474.12 317.98,504.05 311.53,525.50 C305.07,546.95 299.42,564.89 298.98,565.36 C297.84,566.59 282.58,550.78 275.80,541.34 C260.68,520.31 252.00,495.79 252.00,474.11 L 252.00 465.44 L 244.44 461.70 C240.28,459.64 236.46,458.22 235.94,458.54 C234.41,459.48 234.87,482.88 236.62,493.07 C239.37,509.17 244.92,522.25 256.13,539.06 C263.18,549.65 281.07,568.18 290.28,574.45 C293.47,576.61 295.86,578.92 295.61,579.58 C295.36,580.23 286.52,609.51 275.98,644.64 C265.43,679.76 255.73,710.37 254.42,712.64 C253.11,714.92 250.68,717.93 249.02,719.33 C247.36,720.73 246.00,722.12 246.00,722.44 C246.00,723.19 269.50,723.17 270.25,722.41 C270.58,722.09 269.57,720.63 268.02,719.16 L 265.21 716.50 L 274.93 685.00 C280.28,667.67 289.30,638.31 294.97,619.75 C301.80,597.43 305.75,586.00 306.63,586.00 C307.36,586.00 310.91,587.81 314.52,590.01 C333.06,601.36 366.10,615.81 395.83,625.58 C405.00,628.60 413.02,631.24 413.65,631.46 C415.55,632.12 372.39,779.54 367.57,788.86 C366.69,790.56 364.09,793.76 361.79,795.98 L 357.60 800.00 L 370.80 800.00 C378.06,800.00 383.98,799.66 383.96,799.25 C383.94,798.84 382.48,797.58 380.71,796.45 C378.95,795.32 377.55,793.73 377.60,792.91 C377.70,791.45 425.03,635.83 425.58,635.15 C426.08,634.53 494.17,651.87 504.47,655.24 L 514.44 658.50 L 523.17 688.93 C538.17,741.27 544.22,757.32 555.42,774.51 C565.64,790.20 576.66,799.28 591.00,803.81 C600.79,806.92 600.77,806.91 611.50,806.58 C618.37,806.36 622.96,805.67 626.18,804.38 ZM 452.45 199.03 C459.42,194.72 462.43,183.60 458.62,176.23 C451.00,161.50 427.80,165.63 426.23,181.99 C425.62,188.29 426.37,191.09 429.71,195.07 C435.54,202.00 444.98,203.65 452.45,199.03 ZM 604.06 794.09 C591.56,789.02 581.73,773.76 569.22,740.00 C563.48,724.51 549.00,676.25 549.00,672.61 C549.00,671.15 552.24,672.36 563.22,677.94 C585.75,689.39 605.94,703.92 620.77,719.37 C643.09,742.64 650.30,766.10 640.06,782.24 C632.73,793.80 616.51,799.14 604.06,794.09 ZM 501.00 644.74 C495.77,643.18 478.23,638.54 462.00,634.43 C427.19,625.62 429.00,626.14 429.00,624.80 C429.00,623.33 464.96,505.89 465.95,504.12 C466.53,503.09 467.04,503.63 467.83,506.10 C475.27,529.35 510.98,646.50 510.78,646.96 C510.62,647.30 506.23,646.30 501.00,644.74 ZM 395.00 615.55 C373.32,608.15 362.79,603.90 345.50,595.57 C332.60,589.36 316.97,580.48 310.66,575.77 C308.92,574.47 309.95,570.74 330.85,502.45 C355.29,422.61 354.56,424.86 355.37,427.00 C356.14,429.00 413.00,620.00 413.00,620.56 C413.00,621.51 409.94,620.65 395.00,615.55 Z" fill="rgb(254,254,254)"/>
</g>
</svg>